#!OML:ASF H:\BabyWalks\Project 1\Capture day 1\Session 1\baby.ASF
:FULLY-SPECIFIED
:DEGREES
667
root 33.0979 17.4295 -5.44754 -181.767 79.8634 -183.694
lowerback 20.722 -1.70374 -0.0973469
upperback 6.52421 -1.7328 0.176153
thorax -4.48934 -0.641496 0.642647
lowerneck 0.344704 -2.30907 2.27317
upperneck -8.54066 -3.10793 -2.34146
head -2.86018 -1.50087 -1.06585
rclavicle 2.76062e-014 -3.11595e-014
rhumerus -49.5113 6.7053 -80.9452
rradius 48.5339
rwrist 0.956841
rhand -5.64722 -16.0695
rfingers 7.12502
rthumb 20.1715 -45.0423
lclavicle 2.76062e-014 -3.11595e-014
lhumerus -39.1962 -6.54231 78.1639
lradius 72.0519
lwrist 2.09016
lhand -7.6039 4.28737
lfingers 7.12502
lthumb 18.2899 33.4475
rfemur -26.4901 6.21937 19.4572
rtibia 31.7895
rfoot -5.9928 -4.33541
rtoes 4.633
lfemur 0.530231 3.26741 -13.7101
ltibia 26.6774
lfoot -24.9639 1.12657
ltoes -14.3352
668
root 33.1929 17.42 -5.44535 -181.766 80.0414 -183.694
lowerback 20.704 -1.69322 0.07953
upperback 6.5143 -1.67873 0.287027
thorax -4.49347 -0.616024 0.647376
lowerneck 0.316348 -2.29585 2.4372
upperneck -8.47439 -3.11598 -2.75963
head -2.84667 -1.49737 -1.2306
rclavicle 2.6339e-015 -9.74045e-015
rhumerus -48.8378 6.68959 -80.9347
rradius 48.7657
rwrist 0.706684
rhand -6.41333 -16.0223
rfingers 7.12502
rthumb 19.435 -45.071
lclavicle 2.6339e-015 -9.74045e-015
lhumerus -39.4593 -6.11341 78.5059
lradius 70.6803
lwrist 1.56153
lhand -7.62017 4.30284
lfingers 7.12502
lthumb 18.2743 33.4644
rfemur -26.5249 6.0799 19.6563
rtibia 32.5341
rfoot -6.58883 -4.0862
rtoes 4.48145
lfemur 0.345195 3.77787 -13.4869
ltibia 27.7677
lfoot -25.02 0.625574
ltoes -15.0244
669
root 33.287 17.4161 -5.44278 -182.594 80.2139 -184.523
lowerback 20.694 -1.67105 0.0964813
upperback 6.51035 -1.6432 0.359229
thorax -4.49117 -0.599493 0.706188
lowerneck 0.308079 -2.27154 2.6096
upperneck -8.41902 -3.10792 -3.17326
head -2.8405 -1.48617 -1.39632
rclavicle -4.57205e-015 -2.98177e-015
rhumerus -48.1559 6.64555 -80.9143
rradius 49.0584
rwrist 0.468714
rhand -7.19771 -16.0597
rfingers 7.12502
rthumb 18.6807 -45.1827
lclavicle -4.57205e-015 -2.98177e-015
lhumerus -39.6868 -5.67559 78.8139
lradius 69.239
lwrist 1.02111
lhand -7.52032 4.43008
lfingers 7.12502
lthumb 18.3703 33.5827
rfemur -26.4997 5.90019 19.7023
rtibia 33.1654
rfoot -7.15017 -3.77135
rtoes 4.40626
lfemur 0.263491 4.23064 -13.4216
ltibia 28.6371
lfoot -24.904 0.100877
ltoes -15.6852
670
root 33.3799 17.4174 -5.43967 -184.056 80.3527 -185.981
lowerback 20.6894 -1.6465 -0.00372819
upperback 6.51238 -1.6288 0.406529
thorax -4.48221 -0.593163 0.810068
lowerneck 0.330823 -2.24511 2.77297
upperneck -8.3861 -3.09511 -3.56504
head -2.84697 -1.47262 -1.55405
rclavicle 1.09332e-015 2.24627e-014
rhumerus -47.4928 6.57332 -80.89
rradius 49.4347
rwrist 0.227141
rhand -8.02451 -16.1562
rfingers 7.12502
rthumb 17.8853 -45.3538
lclavicle 1.09332e-015 2.24627e-014
lhumerus -39.8653 -5.23747 79.0927
lradius 67.7313
lwrist 0.480552
lhand -7.27065 4.64217
lfingers 7.12502
lthumb 18.6105 33.7719
rfemur -26.4104 5.70934 19.6274
rtibia 33.6892
rfoot -7.65691 -3.49075
rtoes 4.40881
lfemur 0.283246 4.58007 -13.4736
ltibia 29.2831
lfoot -24.6407 -0.436787
ltoes -16.3339
671
root 33.4719 17.4229 -5.43606 -185.772 80.4418 -187.689
lowerback 20.6881 -1.6266 -0.151097
upperback 6.51657 -1.62965 0.449724
thorax -4.47104 -0.594215 0.940048
lowerneck 0.375381 -2.22199 2.91521
upperneck -8.36916 -3.08523 -3.93302
head -2.86206 -1.46024 -1.70083
rclavicle -1.88845e-015 2.56432e-014
rhumerus -46.8764 6.4808 -80.8634
rradius 49.9126
rwrist -0.0467096
rhand -8.91298 -16.2991
rfingers 7.12502
rthumb 17.0302 -45.5726
lclavicle -1.88845e-015 2.56432e-014
lhumerus -39.9904 -4.81039 79.3553
lradius 66.1625
lwrist -0.0450035
lhand -6.83384 4.94555
lfingers 7.12502
lthumb 19.0306 34.0345
rfemur -26.2573 5.53891 19.4922
rtibia 34.1036
rfoot -8.12707 -3.26262
rtoes 4.44149
lfemur 0.383645 4.79465 -13.5747
ltibia 29.7331
lfoot -24.2692 -0.97658
ltoes -16.9843
672
root 33.563 17.4321 -5.43232 -187.303 80.4795 -189.204
lowerback 20.6808 -1.61905 -0.267741
upperback 6.52441 -1.63891 0.508786
thorax -4.4531 -0.599264 1.07132
lowerneck 0.41861 -2.21109 3.02168
upperneck -8.34813 -3.09027 -4.26971
head -2.8746 -1.45506 -1.83113
rclavicle 1.51076e-014 1.98785e-016
rhumerus -46.3186 6.37338 -80.8331
rradius 50.4939
rwrist -0.364625
rhand -9.87105 -16.4684
rfingers 7.12502
rthumb 16.1078 -45.819
lclavicle 1.51076e-014 1.98785e-016
lhumerus -40.0568 -4.40767 79.6091
lradius 64.5387
lwrist -0.526944
lhand -6.21196 5.30693
lfingers 7.12502
lthumb 19.6286 34.336
rfemur -26.0344 5.40431 19.3705
rtibia 34.3919
rfoot -8.54366 -3.11796
rtoes 4.50432
lfemur 0.542493 4.85904 -13.6513
ltibia 30.0299
lfoot -23.8432 -1.50704
ltoes -17.6455
673
root 33.6533 17.4444 -5.4289 -188.294 80.4776 -190.18
lowerback 20.6667 -1.62738 -0.290255
upperback 6.52708 -1.6484 0.59714
thorax -4.43928 -0.604432 1.18035
lowerneck 0.438971 -2.21716 3.09128
upperneck -8.29621 -3.11666 -4.57722
head -2.87189 -1.46078 -1.94497
rclavicle 3.13086e-014 -1.15295e-014
rhumerus -45.8432 6.26048 -80.8014
rradius 51.1791
rwrist -0.739165
rhand -10.9053 -16.6458
rfingers 7.12502
rthumb 15.1118 -46.0741
lclavicle 3.13086e-014 -1.15295e-014
lhumerus -40.0843 -4.04306 79.8595
lradius 62.8763
lwrist -0.948166
lhand -5.42501 5.68527
lfingers 7.12502
lthumb 20.385 34.6353
rfemur -25.746 5.31546 19.3215
rtibia 34.5423
rfoot -8.89975 -3.0608
rtoes 4.59489
lfemur 0.734258 4.77503 -13.6469
ltibia 30.2093
lfoot -23.3981 -2.01875
ltoes -18.3095
674
root 33.7428 17.459 -5.4262 -188.559 80.4555 -190.435
lowerback 20.6386 -1.64994 -0.186149
upperback 6.52561 -1.64904 0.723244
thorax -4.42567 -0.605226 1.25534
lowerneck 0.413835 -2.23953 3.1284
upperneck -8.20462 -3.16369 -4.86302
head -2.84708 -1.47733 -2.04547
rclavicle -8.74653e-015 -3.18055e-015
rhumerus -45.4471 6.14588 -80.762
rradius 51.9553
rwrist -1.17081
rhand -11.9964 -16.8056
rfingers 7.12502
rthumb 14.0605 -46.31
lclavicle -8.74653e-015 -3.18055e-015
lhumerus -40.0782 -3.72402 80.1101
lradius 61.1952
lwrist -1.3132
lhand -4.49056 6.06722
lfingers 7.12502
lthumb 21.2828 34.9187
rfemur -25.4011 5.27667 19.3803
rtibia 34.552
rfoot -9.18863 -3.08304
rtoes 4.68323
lfemur 0.944135 4.55604 -13.5328
ltibia 30.2931
lfoot -22.9573 -2.49941
ltoes -18.9626
675
root 33.8312 17.476 -5.42465 -188.146 80.4282 -190.029
lowerback 20.5929 -1.68273 0.0383204
upperback 6.51111 -1.63788 0.884962
thorax -4.42003 -0.600419 1.29693
lowerneck 0.362188 -2.27967 3.10481
upperneck -8.08582 -3.23247 -5.10749
head -2.80678 -1.50484 -2.12069
rclavicle 9.93923e-015 -2.54444e-014
rhumerus -45.1402 6.0496 -80.7159
rradius 52.8086
rwrist -1.66521
rhand -13.1258 -16.9275
rfingers 7.12502
rthumb 12.972 -46.5042
lclavicle 9.93923e-015 -2.54444e-014
lhumerus -40.0695 -3.44955 80.3618
lradius 59.5304
lwrist -1.65159
lhand -3.42971 6.45946
lfingers 7.12502
lthumb 22.3015 35.1925
rfemur -25.0323 5.27662 19.5424
rtibia 34.46
rfoot -9.42468 -3.16346
rtoes 4.77324
lfemur 1.14966 4.23191 -13.3209
ltibia 30.3163
lfoot -22.5451 -2.9386
ltoes -19.5711
